#!OML:ASF E:\Mandelcareful walks\Project 1\Capture day 1\Session 1\Subject1.ASF
:FULLY-SPECIFIED
:DEGREES
592
root -18.7645 15.4962 0.0273279 164.079 82.1073 144.83
lowerback 19.9498 1.47277 -0.0597173
upperback 5.10636 2.14578 -1.51714
thorax -5.56203 1.18646 -2.12304
lowerneck -12.9424 21.5699 13.4103
upperneck 9.80149 31.0457 -21.9728
head 10.968 13.7902 -3.99496
rclavicle -9.14409e-015 3.53837e-014
rhumerus -17.9361 1.62955 -74.4836
rradius 71.6846
rwrist -13.0642
rhand -22.3659 -23.1799
rfingers 7.12502
rthumb 4.0554 666.879
lclavicle -9.14409e-015 3.53837e-014
lhumerus -6.98649 -23.1035 75.6552
lradius 64.9595
lwrist 18.6286
lhand -28.6567 -17.431
lfingers 7.12502
lthumb -2.02011 12.5392
rfemur -48.3096 -17.7713 9.05914
rtibia 51.6627
rfoot -16.6316 -6.82738
rtoes -11.7585
lfemur -42.4939 14.5568 -12.2475
ltibia 45.3116
lfoot -13.7229 2.60853
ltoes -13.3617
593
root -18.7599 15.4996 0.0245223 165.107 82.1411 145.923
lowerback 19.8627 1.49032 -0.153838
upperback 5.12335 2.1576 -1.40713
thorax -5.50552 1.19324 -1.95056
lowerneck -12.9293 21.5373 13.388
upperneck 9.79608 31.015 -22.0063
head 10.9623 13.7752 -4.01265
rclavicle 1.11319e-014 -1.59028e-014
rhumerus -17.9152 1.78757 -74.4079
rradius 71.6508
rwrist -13.1988
rhand -22.6919 -23.8598
rfingers 7.12502
rthumb 3.74067 666.193
lclavicle 1.11319e-014 -1.59028e-014
lhumerus -7.0742 -22.8807 75.6565
lradius 64.9795
lwrist 18.7921
lhand -28.4745 -17.5813
lfingers 7.12502
lthumb -1.84423 12.3905
rfemur -48.1576 -17.7047 9.18078
rtibia 51.5589
rfoot -16.6103 -6.90615
rtoes -11.4323
lfemur -42.41 14.6306 -12.1036
ltibia 45.2624
lfoot -13.6427 2.48281
ltoes -12.7468
594
root -18.7552 15.5025 0.0233803 165.901 82.0568 146.752
lowerback 19.8712 1.47881 -0.218372
upperback 5.02852 2.12509 -1.36674
thorax -5.61689 1.17406 -1.86569
lowerneck -12.7038 21.4974 13.3865
upperneck 9.66529 30.9367 -21.9732
head 10.8544 13.7699 -4.04864
rclavicle 3.10104e-014 -2.78299e-014
rhumerus -17.9302 1.83661 -74.4024
rradius 71.3955
rwrist -13.1828
rhand -22.8155 -24.0115
rfingers 7.12502
rthumb 3.62127 666.039
lclavicle 3.10104e-014 -2.78299e-014
lhumerus -7.13807 -22.8003 75.6517
lradius 64.7393
lwrist 18.8156
lhand -28.406 -17.7106
lfingers 7.12502
lthumb -1.77804 12.2618
rfemur -47.9871 -17.7137 9.20432
rtibia 51.448
rfoot -16.6639 -6.91213
rtoes -10.7602
lfemur -42.3712 14.6635 -12.0564
ltibia 45.2083
lfoot -13.6084 2.29989
ltoes -11.6912
595
root -18.7494 15.508 0.0228783 167.088 81.9469 148.018
lowerback 19.8661 1.44993 -0.137738
upperback 4.9568 2.09808 -1.37217
thorax -5.6893 1.15749 -1.91251
lowerneck -12.5813 21.4201 13.4886
upperneck 9.74427 30.8117 -21.8706
head 10.8341 13.7245 -4.07399
rclavicle 7.83212e-014 -3.77691e-014
rhumerus -18.0004 1.79492 -74.4973
rradius 71.209
rwrist -13.2534
rhand -22.3184 -23.4332
rfingers 7.12502
rthumb 4.1013 666.626
lclavicle 7.83212e-014 -3.77691e-014
lhumerus -7.14958 -22.9387 75.5063
lradius 64.5206
lwrist 18.9673
lhand -28.251 -17.7277
lfingers 7.12502
lthumb -1.62829 12.2459
rfemur -47.7368 -17.7443 9.28202
rtibia 51.3184
rfoot -16.7136 -6.96459
rtoes -10.9531
lfemur -42.2891 14.6217 -11.9327
ltibia 45.1424
lfoot -13.6685 2.24723
ltoes -11.4069
596
root -18.744 15.5128 0.0225255 168.229 81.9051 149.232
lowerback 19.7892 1.44122 -0.0975309
upperback 4.94268 2.09453 -1.35936
thorax -5.6634 1.15489 -1.91818
lowerneck -12.6703 21.3634 13.5146
upperneck 9.97089 30.7288 -21.6989
head 10.8843 13.6732 -4.03724
rclavicle -1.94809e-014 1.03766e-013
rhumerus -18.0797 1.80627 -74.5887
rradius 71.2257
rwrist -13.3798
rhand -22.0086 -23.4954
rfingers 7.12502
rthumb 4.40043 666.57
lclavicle -1.94809e-014 1.03766e-013
lhumerus -7.23835 -23.0016 75.3353
lradius 64.5516
lwrist 19.2929
lhand -27.9975 -17.5498
lfingers 7.12502
lthumb -1.38354 12.4255
rfemur -47.5305 -17.693 9.39071
rtibia 51.1792
rfoot -16.7166 -7.09533
rtoes -11.5284
lfemur -42.2053 14.5991 -11.7814
ltibia 45.065
lfoot -13.6866 2.2637
ltoes -11.6118
597
root -18.7364 15.5177 0.0220526 169.133 81.8375 150.194
lowerback 19.6452 1.42585 -0.127902
upperback 4.96828 2.07204 -1.33787
thorax -5.56264 1.14546 -1.86634
lowerneck -12.9378 21.3642 13.4857
upperneck 10.3364 30.7315 -21.4404
head 11.0035 13.6409 -3.92669
rclavicle 2.78299e-015 8.34896e-015
rhumerus -18.2059 1.83424 -74.6465
rradius 71.2239
rwrist -13.374
rhand -22.1458 -23.5326
rfingers 7.12502
rthumb 4.26801 666.53
lclavicle 2.78299e-015 8.34896e-015
lhumerus -7.25507 -22.91 75.2119
lradius 64.4868
lwrist 19.4669
lhand -28.0865 -17.3774
lfingers 7.12502
lthumb -1.46941 12.5973
rfemur -47.3201 -17.6808 9.45347
rtibia 51.0451
rfoot -16.736 -7.17774
rtoes -11.7111
lfemur -42.115 14.5406 -11.6686
ltibia 44.9749
lfoot -13.6493 2.24154
ltoes -11.7029
598
root -18.7264 15.5249 0.0214852 170.136 81.7293 151.327
lowerback 19.4686 1.38211 -0.107753
upperback 5.04746 2.02724 -1.31088
thorax -5.38639 1.12701 -1.82972
lowerneck -12.9861 21.3573 13.4773
upperneck 10.4509 30.7226 -21.3498
head 11.0312 13.6292 -3.89554
rclavicle -1.19271e-014 4.65156e-014
rhumerus -18.3202 1.79494 -74.6692
rradius 71.0535
rwrist -13.1368
rhand -22.0248 -22.9692
rfingers 7.12502
rthumb 4.38479 667.096
lclavicle -1.19271e-014 4.65156e-014
lhumerus -7.19865 -22.7655 75.0603
lradius 64.2809
lwrist 19.4328
lhand -28.4079 -17.4945
lfingers 7.12502
lthumb -1.77988 12.4778
rfemur -47.0143 -17.7716 9.5382
rtibia 50.9203
rfoot -16.7567 -7.22488
rtoes -12.0205
lfemur -41.9234 14.4374 -11.5174
ltibia 44.8796
lfoot -13.6192 2.19445
ltoes -11.5933
599
root -18.715 15.5309 0.0220481 171.001 81.6158 152.297
lowerback 19.1943 1.35055 -0.140989
upperback 5.14237 1.99029 -1.25659
thorax -5.1445 1.11305 -1.73188
lowerneck -12.9163 21.3406 13.3845
upperneck 10.4802 30.7162 -21.2941
head 11.0017 13.6309 -3.87867
rclavicle -1.47101e-014 2.22639e-014
rhumerus -18.3674 1.74884 -74.5931
rradius 70.9796
rwrist -13.0313
rhand -21.2068 -22.8777
rfingers 7.12502
rthumb 5.17469 667.205
lclavicle -1.47101e-014 2.22639e-014
lhumerus -7.17863 -22.5616 74.9502
lradius 64.1432
lwrist 19.3806
lhand -28.526 -17.6293
lfingers 7.12502
lthumb -1.89397 12.342
rfemur -46.7536 -17.8676 9.61286
rtibia 50.8211
rfoot -16.8001 -7.26151
rtoes -12.0065
lfemur -41.7411 14.3522 -11.391
ltibia 44.7859
lfoot -13.5235 2.09638
ltoes -11.4742
600
root -18.6987 15.5345 0.0210477 172.023 81.5191 153.383
lowerback 19.1948 1.33913 -0.159436
upperback 4.96406 1.96096 -1.20566
thorax -5.33932 1.09162 -1.66455
lowerneck -12.6366 21.316 13.4377
upperneck 10.7529 30.7184 -21.0931
head 11.0176 13.647 -3.84815
rclavicle 5.92378e-014 1.94809e-014
rhumerus -18.7882 1.90005 -74.583
rradius 71.0684
rwrist -13.4747
rhand -20.6913 -23.2006
rfingers 7.12502
rthumb 5.6724 666.895
lclavicle 5.92378e-014 1.94809e-014
lhumerus -7.53561 -22.4365 75.0099
lradius 63.9724
lwrist 19.3696
lhand -28.469 -17.6312
lfingers 7.12502
lthumb -1.83884 12.3407
rfemur -46.513 -17.9419 9.70373
rtibia 50.7405
rfoot -16.8737 -7.25286
rtoes -11.1001
lfemur -41.5818 14.3095 -11.2502
ltibia 44.7052
lfoot -13.5054 1.97114
ltoes -11.8176
